<mxfile host="app.diagrams.net" agent="Mozilla/5.0 (Macintosh; Intel Mac OS X 10_15_7) AppleWebKit/537.36 (KHTML, like Gecko) Chrome/131.0.0.0 Safari/537.36" version="24.8.3">
  <diagram name="Page-1" id="fxwGUeWTSbPMi8nCqgoY">
    <mxGraphModel dx="1226" dy="729" grid="1" gridSize="10" guides="1" tooltips="1" connect="1" arrows="1" fold="1" page="1" pageScale="1" pageWidth="850" pageHeight="1100" math="0" shadow="0">
      <root>
        <mxCell id="0" />
        <mxCell id="1" parent="0" />
        <mxCell id="fe5YU-rTOIOcSovbXRHe-1" value="All Products" style="rounded=0;whiteSpace=wrap;html=1;" vertex="1" parent="1">
          <mxGeometry x="160" y="180" width="120" height="60" as="geometry" />
        </mxCell>
        <mxCell id="fe5YU-rTOIOcSovbXRHe-2" value="Simple Product" style="rounded=0;whiteSpace=wrap;html=1;" vertex="1" parent="1">
          <mxGeometry x="70" y="320" width="120" height="60" as="geometry" />
        </mxCell>
        <mxCell id="fe5YU-rTOIOcSovbXRHe-3" value="Parent Product" style="rounded=0;whiteSpace=wrap;html=1;" vertex="1" parent="1">
          <mxGeometry x="260" y="320" width="120" height="60" as="geometry" />
        </mxCell>
        <mxCell id="fe5YU-rTOIOcSovbXRHe-5" value="Variation" style="rounded=0;whiteSpace=wrap;html=1;" vertex="1" parent="1">
          <mxGeometry x="260" y="450" width="120" height="60" as="geometry" />
        </mxCell>
        <mxCell id="fe5YU-rTOIOcSovbXRHe-9" value="1" style="endArrow=open;html=1;endSize=12;startArrow=diamondThin;startSize=14;startFill=1;edgeStyle=orthogonalEdgeStyle;align=left;verticalAlign=bottom;rounded=0;entryX=0.5;entryY=0;entryDx=0;entryDy=0;exitX=0.5;exitY=1;exitDx=0;exitDy=0;" edge="1" parent="1" source="fe5YU-rTOIOcSovbXRHe-3" target="fe5YU-rTOIOcSovbXRHe-5">
          <mxGeometry x="-1" y="3" relative="1" as="geometry">
            <mxPoint x="430" y="380" as="sourcePoint" />
            <mxPoint x="400" y="450" as="targetPoint" />
            <mxPoint as="offset" />
          </mxGeometry>
        </mxCell>
        <mxCell id="fe5YU-rTOIOcSovbXRHe-16" value="N" style="edgeLabel;html=1;align=center;verticalAlign=middle;resizable=0;points=[];" vertex="1" connectable="0" parent="fe5YU-rTOIOcSovbXRHe-9">
          <mxGeometry x="0.6602" y="8" relative="1" as="geometry">
            <mxPoint as="offset" />
          </mxGeometry>
        </mxCell>
        <mxCell id="fe5YU-rTOIOcSovbXRHe-12" value="1" style="endArrow=open;html=1;endSize=12;startArrow=diamondThin;startSize=14;startFill=0;edgeStyle=orthogonalEdgeStyle;align=left;verticalAlign=bottom;rounded=0;entryX=0.5;entryY=0;entryDx=0;entryDy=0;exitX=0.5;exitY=1;exitDx=0;exitDy=0;" edge="1" parent="1" source="fe5YU-rTOIOcSovbXRHe-1" target="fe5YU-rTOIOcSovbXRHe-3">
          <mxGeometry x="-1" y="3" relative="1" as="geometry">
            <mxPoint x="230" y="280" as="sourcePoint" />
            <mxPoint x="340" y="360" as="targetPoint" />
          </mxGeometry>
        </mxCell>
        <mxCell id="fe5YU-rTOIOcSovbXRHe-15" value="1" style="endArrow=open;html=1;endSize=12;startArrow=diamondThin;startSize=14;startFill=0;edgeStyle=orthogonalEdgeStyle;align=left;verticalAlign=bottom;rounded=0;entryX=0.5;entryY=0;entryDx=0;entryDy=0;exitX=0.5;exitY=1;exitDx=0;exitDy=0;" edge="1" parent="1" source="fe5YU-rTOIOcSovbXRHe-1" target="fe5YU-rTOIOcSovbXRHe-2">
          <mxGeometry x="-1" y="3" relative="1" as="geometry">
            <mxPoint x="100" y="280" as="sourcePoint" />
            <mxPoint x="260" y="280" as="targetPoint" />
          </mxGeometry>
        </mxCell>
        <mxCell id="fe5YU-rTOIOcSovbXRHe-19" value="All Products" style="rounded=0;whiteSpace=wrap;html=1;" vertex="1" parent="1">
          <mxGeometry x="690" y="180" width="120" height="60" as="geometry" />
        </mxCell>
        <mxCell id="fe5YU-rTOIOcSovbXRHe-20" value="Simple Product" style="rounded=0;whiteSpace=wrap;html=1;" vertex="1" parent="1">
          <mxGeometry x="600" y="320" width="120" height="60" as="geometry" />
        </mxCell>
        <mxCell id="fe5YU-rTOIOcSovbXRHe-21" value="Parent Product" style="rounded=0;whiteSpace=wrap;html=1;" vertex="1" parent="1">
          <mxGeometry x="790" y="320" width="120" height="60" as="geometry" />
        </mxCell>
        <mxCell id="fe5YU-rTOIOcSovbXRHe-22" value="Variation" style="rounded=0;whiteSpace=wrap;html=1;" vertex="1" parent="1">
          <mxGeometry x="790" y="450" width="120" height="60" as="geometry" />
        </mxCell>
        <mxCell id="fe5YU-rTOIOcSovbXRHe-23" value="1" style="endArrow=open;html=1;endSize=12;startArrow=diamondThin;startSize=14;startFill=1;edgeStyle=orthogonalEdgeStyle;align=left;verticalAlign=bottom;rounded=0;entryX=0.5;entryY=0;entryDx=0;entryDy=0;exitX=0.5;exitY=1;exitDx=0;exitDy=0;" edge="1" parent="1" source="fe5YU-rTOIOcSovbXRHe-21" target="fe5YU-rTOIOcSovbXRHe-22">
          <mxGeometry x="-1" y="3" relative="1" as="geometry">
            <mxPoint x="960" y="380" as="sourcePoint" />
            <mxPoint x="930" y="450" as="targetPoint" />
            <mxPoint as="offset" />
          </mxGeometry>
        </mxCell>
        <mxCell id="fe5YU-rTOIOcSovbXRHe-24" value="N" style="edgeLabel;html=1;align=center;verticalAlign=middle;resizable=0;points=[];" vertex="1" connectable="0" parent="fe5YU-rTOIOcSovbXRHe-23">
          <mxGeometry x="0.6602" y="8" relative="1" as="geometry">
            <mxPoint as="offset" />
          </mxGeometry>
        </mxCell>
        <mxCell id="fe5YU-rTOIOcSovbXRHe-25" value="1" style="endArrow=open;html=1;endSize=12;startArrow=diamondThin;startSize=14;startFill=0;edgeStyle=orthogonalEdgeStyle;align=left;verticalAlign=bottom;rounded=0;entryX=0.5;entryY=0;entryDx=0;entryDy=0;exitX=0.5;exitY=1;exitDx=0;exitDy=0;" edge="1" parent="1" source="fe5YU-rTOIOcSovbXRHe-19" target="fe5YU-rTOIOcSovbXRHe-21">
          <mxGeometry x="-1" y="3" relative="1" as="geometry">
            <mxPoint x="760" y="280" as="sourcePoint" />
            <mxPoint x="870" y="360" as="targetPoint" />
          </mxGeometry>
        </mxCell>
        <mxCell id="fe5YU-rTOIOcSovbXRHe-26" value="1" style="endArrow=open;html=1;endSize=12;startArrow=diamondThin;startSize=14;startFill=0;edgeStyle=orthogonalEdgeStyle;align=left;verticalAlign=bottom;rounded=0;entryX=0.5;entryY=0;entryDx=0;entryDy=0;exitX=0.5;exitY=1;exitDx=0;exitDy=0;" edge="1" parent="1" source="fe5YU-rTOIOcSovbXRHe-19" target="fe5YU-rTOIOcSovbXRHe-20">
          <mxGeometry x="-1" y="3" relative="1" as="geometry">
            <mxPoint x="630" y="280" as="sourcePoint" />
            <mxPoint x="790" y="280" as="targetPoint" />
          </mxGeometry>
        </mxCell>
        <mxCell id="fe5YU-rTOIOcSovbXRHe-27" value="Checked Parent Product" style="rounded=0;whiteSpace=wrap;html=1;" vertex="1" parent="1">
          <mxGeometry x="1040" y="180" width="120" height="60" as="geometry" />
        </mxCell>
        <mxCell id="fe5YU-rTOIOcSovbXRHe-28" value="All Checked Variations" style="rounded=0;whiteSpace=wrap;html=1;" vertex="1" parent="1">
          <mxGeometry x="1040" y="310" width="120" height="60" as="geometry" />
        </mxCell>
        <mxCell id="fe5YU-rTOIOcSovbXRHe-29" value="" style="endArrow=block;dashed=1;endFill=0;endSize=12;html=1;rounded=0;entryX=0.5;entryY=0;entryDx=0;entryDy=0;exitX=0.5;exitY=1;exitDx=0;exitDy=0;" edge="1" parent="1" source="fe5YU-rTOIOcSovbXRHe-27" target="fe5YU-rTOIOcSovbXRHe-28">
          <mxGeometry width="160" relative="1" as="geometry">
            <mxPoint x="1030" y="170" as="sourcePoint" />
            <mxPoint x="1190" y="170" as="targetPoint" />
          </mxGeometry>
        </mxCell>
        <mxCell id="fe5YU-rTOIOcSovbXRHe-30" value="N" style="edgeLabel;html=1;align=center;verticalAlign=middle;resizable=0;points=[];" vertex="1" connectable="0" parent="fe5YU-rTOIOcSovbXRHe-29">
          <mxGeometry x="0.611" y="7" relative="1" as="geometry">
            <mxPoint as="offset" />
          </mxGeometry>
        </mxCell>
        <mxCell id="fe5YU-rTOIOcSovbXRHe-31" value="1" style="text;html=1;align=center;verticalAlign=middle;resizable=0;points=[];autosize=1;strokeColor=none;fillColor=none;" vertex="1" parent="1">
          <mxGeometry x="1095" y="238" width="30" height="30" as="geometry" />
        </mxCell>
        <mxCell id="fe5YU-rTOIOcSovbXRHe-32" value="Count of Checked Variations of a Parent Product" style="rounded=0;whiteSpace=wrap;html=1;" vertex="1" parent="1">
          <mxGeometry x="1290" y="180" width="120" height="60" as="geometry" />
        </mxCell>
        <mxCell id="fe5YU-rTOIOcSovbXRHe-35" value="All Checked Variations" style="rounded=0;whiteSpace=wrap;html=1;" vertex="1" parent="1">
          <mxGeometry x="1290" y="310" width="120" height="60" as="geometry" />
        </mxCell>
        <mxCell id="fe5YU-rTOIOcSovbXRHe-36" value="" style="endArrow=block;dashed=1;endFill=0;endSize=12;html=1;rounded=0;entryX=0.5;entryY=0;entryDx=0;entryDy=0;exitX=0.5;exitY=1;exitDx=0;exitDy=0;" edge="1" parent="1">
          <mxGeometry width="160" relative="1" as="geometry">
            <mxPoint x="1349.62" y="240" as="sourcePoint" />
            <mxPoint x="1349.62" y="310" as="targetPoint" />
          </mxGeometry>
        </mxCell>
        <mxCell id="fe5YU-rTOIOcSovbXRHe-37" value="N" style="edgeLabel;html=1;align=center;verticalAlign=middle;resizable=0;points=[];" vertex="1" connectable="0" parent="fe5YU-rTOIOcSovbXRHe-36">
          <mxGeometry x="0.611" y="7" relative="1" as="geometry">
            <mxPoint as="offset" />
          </mxGeometry>
        </mxCell>
        <mxCell id="fe5YU-rTOIOcSovbXRHe-38" value="1" style="text;html=1;align=center;verticalAlign=middle;resizable=0;points=[];autosize=1;strokeColor=none;fillColor=none;" vertex="1" parent="1">
          <mxGeometry x="1342" y="237" width="30" height="30" as="geometry" />
        </mxCell>
        <mxCell id="fe5YU-rTOIOcSovbXRHe-39" value="Variation" style="rounded=0;whiteSpace=wrap;html=1;" vertex="1" parent="1">
          <mxGeometry x="1040" y="450" width="120" height="60" as="geometry" />
        </mxCell>
        <mxCell id="fe5YU-rTOIOcSovbXRHe-40" value="1" style="endArrow=open;html=1;endSize=12;startArrow=diamondThin;startSize=14;startFill=1;edgeStyle=orthogonalEdgeStyle;align=left;verticalAlign=bottom;rounded=0;entryX=0.5;entryY=0;entryDx=0;entryDy=0;exitX=0.5;exitY=1;exitDx=0;exitDy=0;" edge="1" parent="1" target="fe5YU-rTOIOcSovbXRHe-39">
          <mxGeometry x="-1" y="3" relative="1" as="geometry">
            <mxPoint x="1099.62" y="370" as="sourcePoint" />
            <mxPoint x="1099.62" y="440" as="targetPoint" />
            <mxPoint as="offset" />
          </mxGeometry>
        </mxCell>
        <mxCell id="fe5YU-rTOIOcSovbXRHe-41" value="N" style="edgeLabel;html=1;align=center;verticalAlign=middle;resizable=0;points=[];" vertex="1" connectable="0" parent="fe5YU-rTOIOcSovbXRHe-40">
          <mxGeometry x="0.6602" y="8" relative="1" as="geometry">
            <mxPoint as="offset" />
          </mxGeometry>
        </mxCell>
        <mxCell id="fe5YU-rTOIOcSovbXRHe-45" value="Variation" style="rounded=0;whiteSpace=wrap;html=1;" vertex="1" parent="1">
          <mxGeometry x="1290" y="450" width="120" height="60" as="geometry" />
        </mxCell>
        <mxCell id="fe5YU-rTOIOcSovbXRHe-46" value="" style="endArrow=open;html=1;endSize=12;startArrow=diamondThin;startSize=14;startFill=1;edgeStyle=orthogonalEdgeStyle;align=left;verticalAlign=bottom;rounded=0;entryX=0.5;entryY=0;entryDx=0;entryDy=0;exitX=0.5;exitY=1;exitDx=0;exitDy=0;" edge="1" parent="1">
          <mxGeometry x="-1" y="3" relative="1" as="geometry">
            <mxPoint x="1349.54" y="370" as="sourcePoint" />
            <mxPoint x="1349.92" y="450" as="targetPoint" />
            <mxPoint as="offset" />
          </mxGeometry>
        </mxCell>
        <mxCell id="fe5YU-rTOIOcSovbXRHe-47" value="&amp;lt; N" style="edgeLabel;html=1;align=center;verticalAlign=middle;resizable=0;points=[];" vertex="1" connectable="0" parent="fe5YU-rTOIOcSovbXRHe-46">
          <mxGeometry x="0.6602" y="8" relative="1" as="geometry">
            <mxPoint as="offset" />
          </mxGeometry>
        </mxCell>
        <mxCell id="fe5YU-rTOIOcSovbXRHe-49" value="Parent Product" style="rounded=0;whiteSpace=wrap;html=1;" vertex="1" parent="1">
          <mxGeometry x="1500" y="180" width="120" height="60" as="geometry" />
        </mxCell>
        <mxCell id="fe5YU-rTOIOcSovbXRHe-53" value="" style="line;strokeWidth=1;fillColor=none;align=left;verticalAlign=middle;spacingTop=-1;spacingLeft=3;spacingRight=3;rotatable=0;labelPosition=right;points=[];portConstraint=eastwest;strokeColor=inherit;" vertex="1" parent="1">
          <mxGeometry x="1410" y="206" width="90" height="8" as="geometry" />
        </mxCell>
      </root>
    </mxGraphModel>
  </diagram>
</mxfile>
